<svg width="256" height="256" viewBox="0 0 256 256" fill="none" xmlns="http://www.w3.org/2000/svg">
<path d="M227.556 128V227.556H28.4444V28.4444H155.876C155.876 28.4444 149.333 10.6667 142.222 0H28.4444C12.8 0 0 12.8 0 28.4444V227.556C0 243.2 12.8 256 28.4444 256H227.556C243.2 256 256 243.2 256 227.556V85.3333L227.556 128ZM206.222 199.111H49.7778L88.8889 148.907L116.764 182.471L155.876 132.124L206.222 199.111Z" fill="#9B51E0"/>
<path d="M174.222 0V23H201.5V85.3333H230V23H256V0H174.222Z" fill="#9B51E0"/>
<circle cx="114.5" cy="100.5" r="27.5" fill="#9B51E0"/>
</svg>
